<svg xmlns="http://www.w3.org/2000/svg" viewBox="0 0 512 512">
  <defs>
    <linearGradient id="bg" x1="0%" y1="0%" x2="100%" y2="100%">
      <stop offset="0%" style="stop-color:#1e3a5f"/>
      <stop offset="100%" style="stop-color:#2d6cdf"/>
    </linearGradient>
  </defs>
  <!-- Fondo -->
  <rect width="512" height="512" rx="80" fill="url(#bg)"/>

  <!-- Clipboard base -->
  <rect x="120" y="100" width="272" height="340" rx="20" fill="#fff" opacity="0.95"/>

  <!-- Clipboard clip -->
  <rect x="180" y="70" width="152" height="50" rx="10" fill="#1e3a5f"/>
  <circle cx="256" cy="95" r="15" fill="#fff"/>

  <!-- Líneas de lista -->
  <rect x="160" y="160" width="30" height="30" rx="6" fill="#22c55e"/>
  <path d="M168 175 L178 185 L188 168" stroke="#fff" stroke-width="4" fill="none" stroke-linecap="round" stroke-linejoin="round"/>
  <rect x="210" y="165" width="140" height="20" rx="4" fill="#e2e8f0"/>

  <rect x="160" y="220" width="30" height="30" rx="6" fill="#22c55e"/>
  <path d="M168 235 L178 245 L188 228" stroke="#fff" stroke-width="4" fill="none" stroke-linecap="round" stroke-linejoin="round"/>
  <rect x="210" y="225" width="120" height="20" rx="4" fill="#e2e8f0"/>

  <rect x="160" y="280" width="30" height="30" rx="6" fill="#ef4444"/>
  <path d="M170 290 L180 300 M180 290 L170 300" stroke="#fff" stroke-width="4" fill="none" stroke-linecap="round"/>
  <rect x="210" y="285" width="150" height="20" rx="4" fill="#e2e8f0"/>

  <rect x="160" y="340" width="30" height="30" rx="6" fill="#22c55e"/>
  <path d="M168 355 L178 365 L188 348" stroke="#fff" stroke-width="4" fill="none" stroke-linecap="round" stroke-linejoin="round"/>
  <rect x="210" y="345" width="100" height="20" rx="4" fill="#e2e8f0"/>

  <!-- Badge INSA -->
  <circle cx="400" cy="400" r="70" fill="#f59e0b"/>
  <text x="400" y="415" text-anchor="middle" font-family="Arial, sans-serif" font-size="36" font-weight="bold" fill="#1e3a5f">INSA</text>
</svg>
